<svg width="84" height="75" viewBox="0 0 84 75" fill="none" xmlns="http://www.w3.org/2000/svg">
<path d="M62.3668 52.8195L82.2907 41.2232C83.3445 40.6092 84 39.4658 84 38.2377V15.0416C84 13.8153 83.3445 12.6701 82.2907 12.0561L62.3668 0.459844C61.313 -0.154181 60.002 -0.152381 58.9482 0.459844L39.0244 12.0561C37.9706 12.6701 37.3151 13.8135 37.3151 15.0416V56.491L23.3442 64.621L9.37342 56.491V40.2256L23.3442 32.0957L32.5605 37.458V26.5478L25.0535 22.1794C24.5356 21.8787 23.9444 21.7202 23.3442 21.7202C22.7441 21.7202 22.1529 21.8787 21.635 22.1794L1.70929 33.7775C0.655496 34.3915 0 35.5349 0 36.763V59.9573C0 61.1835 0.655496 62.3288 1.70929 62.9428L21.6332 74.5408C22.687 75.1531 23.9962 75.1531 25.0518 74.5408L44.9756 62.9446C46.0294 62.3306 46.6849 61.1853 46.6849 59.9591V18.5097L46.9368 18.3638L60.6558 10.3797L74.6266 18.5115V34.775L60.6558 42.9068L51.4538 37.5517V48.4619L58.9465 52.8249C60.0003 53.4371 61.3112 53.4371 62.365 52.8249L62.3668 52.8195Z" fill="url(#paint0_linear_10561_3474)"/>
<defs>
<linearGradient id="paint0_linear_10561_3474" x1="7.1408" y1="63.1246" x2="79.7408" y2="10.6152" gradientUnits="userSpaceOnUse">
<stop stop-color="#A726C1"/>
<stop offset="0.88" stop-color="#803BDF"/>
<stop offset="1" stop-color="#7B3FE4"/>
</linearGradient>
</defs>
</svg>
